<?xml version="1.0" encoding="UTF-8" standalone="no"?>
<!DOCTYPE svg PUBLIC "-//W3C//DTD SVG 1.1//EN" "http://www.w3.org/Graphics/SVG/1.1/DTD/svg11.dtd">
<svg width="100%" height="100%" viewBox="0 0 24 24" version="1.1" xmlns="http://www.w3.org/2000/svg" xmlns:xlink="http://www.w3.org/1999/xlink" xml:space="preserve" xmlns:serif="http://www.serif.com/" style="fill-rule:evenodd;clip-rule:evenodd;stroke-linejoin:round;stroke-miterlimit:2;">
    <path d="M12.001,2.002C6.479,2.002 2.002,6.479 2.002,12.001C2.002,16.991 5.658,21.127 10.439,21.88L10.439,14.892L7.899,14.892L7.899,12.001L10.439,12.001L10.439,9.798C10.439,7.29 11.932,5.907 14.215,5.907C15.309,5.907 16.455,6.102 16.455,6.102L16.455,8.561L15.191,8.561C13.951,8.561 13.563,9.333 13.563,10.124L13.563,11.999L16.334,11.999L15.891,14.89L13.563,14.89L13.563,21.878C18.344,21.129 22,16.992 22,12.001C22,6.479 17.523,2.002 12.001,2.002Z" style="fill:white;fill-rule:nonzero;"/>
</svg>
